<?xml version="1.0" standalone="no"?>
<!DOCTYPE svg PUBLIC "-//W3C//DTD SVG 20010904//EN"
 "http://www.w3.org/TR/2001/REC-SVG-20010904/DTD/svg10.dtd">
<svg version="1.0" xmlns="http://www.w3.org/2000/svg"
 width="183.000000pt" height="193.000000pt" viewBox="0 0 183.000000 193.000000"
 preserveAspectRatio="xMidYMid meet">

<g transform="translate(0.000000,193.000000) scale(0.100000,-0.100000)"
fill="#000000" stroke="none">
<path d="M1620 1770 c0 -6 30 -10 70 -10 40 0 70 4 70 10 0 6 -30 10 -70 10
-40 0 -70 -4 -70 -10z"/>
<path d="M1453 1740 c-24 -10 -43 -24 -43 -30 0 -12 27 -14 34 -1 3 4 26 14
51 21 25 7 45 17 45 21 0 15 -43 10 -87 -11z"/>
<path d="M1287 1600 c-41 -54 -43 -60 -24 -60 6 1 28 22 47 48 43 57 45 62 28
62 -8 0 -30 -22 -51 -50z"/>
<path d="M1178 1421 c-28 -48 -36 -81 -20 -81 8 0 62 104 62 120 0 22 -17 7
-42 -39z"/>
<path d="M1076 1209 c-30 -69 -30 -69 -16 -69 11 0 60 96 60 118 0 29 -19 8
-44 -49z"/>
<path d="M989 1013 c-13 -32 -25 -61 -27 -65 -2 -4 2 -8 10 -8 18 0 64 108 51
121 -6 6 -18 -12 -34 -48z"/>
<path d="M895 804 c-33 -74 -20 -92 16 -23 30 58 35 79 19 79 -6 0 -21 -25
-35 -56z"/>
<path d="M800 601 c-19 -39 -26 -62 -19 -66 13 -9 13 -10 43 59 30 67 29 66
16 66 -5 0 -23 -27 -40 -59z"/>
<path d="M722 433 c-6 -16 -17 -45 -26 -65 -13 -30 -14 -38 -3 -38 13 0 57 92
57 118 0 22 -18 12 -28 -15z"/>
<path d="M611 194 c-32 -54 -36 -79 -8 -56 8 7 26 34 41 62 38 70 11 65 -33
-6z"/>
<path d="M450 72 c-25 -8 -51 -17 -59 -19 -9 -2 -11 -7 -5 -13 13 -13 126 20
132 38 5 15 -11 14 -68 -6z"/>
<path d="M170 30 c-8 -5 -12 -12 -8 -15 9 -10 138 6 138 16 0 12 -111 11 -130
-1z"/>
<path d="M0 20 c0 -5 18 -10 40 -10 22 0 40 5 40 10 0 6 -18 10 -40 10 -22 0
-40 -4 -40 -10z"/>
</g>
</svg>
