<?xml version="1.0" standalone="no"?>
<!DOCTYPE svg PUBLIC "-//W3C//DTD SVG 20010904//EN"
 "http://www.w3.org/TR/2001/REC-SVG-20010904/DTD/svg10.dtd">
<svg version="1.0" xmlns="http://www.w3.org/2000/svg"
 width="220.000000pt" height="159.000000pt" viewBox="0 0 220.000000 159.000000"
 preserveAspectRatio="xMidYMid meet">

<g transform="translate(0.000000,159.000000) scale(0.100000,-0.100000)"
fill="#000000" stroke="none">
<path d="M945 1564 c-235 -52 -452 -216 -618 -465 -184 -276 -284 -592 -322
-1015 l-7 -71 32 -7 c18 -3 47 -6 65 -6 l33 0 7 78 c31 377 130 695 296 947
70 107 234 270 326 324 119 70 207 95 343 95 136 0 224 -25 343 -95 92 -54
256 -217 326 -324 64 -97 139 -250 179 -365 57 -163 112 -428 112 -542 0 -61
6 -66 76 -60 l61 4 -4 47 c-44 474 -186 851 -427 1132 -123 145 -315 272 -471
314 -89 23 -265 28 -350 9z"/>
</g>
</svg>
