<?xml version="1.0" standalone="no"?>
<!DOCTYPE svg PUBLIC "-//W3C//DTD SVG 20010904//EN"
 "http://www.w3.org/TR/2001/REC-SVG-20010904/DTD/svg10.dtd">
<svg version="1.0" xmlns="http://www.w3.org/2000/svg"
 width="814.000000pt" height="458.000000pt" viewBox="0 0 814.000000 458.000000"
 preserveAspectRatio="xMidYMid meet">

<g transform="translate(0.000000,458.000000) scale(0.100000,-0.100000)"
fill="#000000" stroke="none">
<path d="M1716 4184 c-188 -45 -386 -206 -589 -477 -107 -142 -196 -280 -377
-582 -276 -460 -385 -619 -499 -728 -33 -32 -81 -67 -106 -78 l-45 -20 0 -94
0 -95 39 0 c62 0 169 60 253 143 132 129 213 246 488 702 208 344 303 494 397
620 146 197 286 329 413 389 57 27 76 31 150 31 73 -1 93 -5 143 -30 116 -58
228 -169 393 -391 172 -231 336 -504 741 -1234 572 -1030 779 -1361 1049
-1680 196 -231 378 -372 564 -436 78 -27 275 -25 381 4 350 94 697 382 1090
905 389 516 790 1207 1442 2484 161 316 164 323 143 336 -51 34 -149 78 -156
70 -5 -4 -92 -172 -195 -373 -645 -1258 -1014 -1893 -1394 -2397 -146 -195
-243 -307 -380 -443 -193 -190 -373 -312 -547 -369 -263 -87 -424 -35 -674
218 -171 172 -342 401 -547 731 -142 228 -245 407 -563 980 -510 918 -675
1186 -895 1455 -254 309 -473 419 -719 359z"/>
</g>
</svg>
