<?xml version="1.0" standalone="no"?>
<!DOCTYPE svg PUBLIC "-//W3C//DTD SVG 20010904//EN"
 "http://www.w3.org/TR/2001/REC-SVG-20010904/DTD/svg10.dtd">
<svg version="1.0" xmlns="http://www.w3.org/2000/svg"
 width="834.000000pt" height="408.000000pt" viewBox="0 0 834.000000 408.000000"
 preserveAspectRatio="xMidYMid meet">

<g transform="translate(0.000000,408.000000) scale(0.100000,-0.100000)"
fill="#000000" stroke="none">
<path d="M6280 3741 c-322 -69 -696 -309 -1420 -911 -733 -610 -959 -786
-1238 -961 -478 -301 -763 -353 -1185 -213 -220 73 -511 236 -784 441 -219
163 -356 281 -793 678 -389 355 -522 467 -632 534 l-37 22 -14 -23 c-8 -13
-31 -51 -50 -85 l-36 -62 80 -56 c102 -72 249 -198 590 -510 715 -654 1092
-925 1521 -1096 436 -174 793 -155 1213 65 330 174 611 380 1338 984 595 494
815 661 1060 808 274 163 489 229 638 194 172 -40 337 -158 481 -345 328 -424
552 -1108 848 -2590 45 -226 83 -411 83 -412 3 -2 187 34 191 38 5 5 -173 891
-224 1114 -164 731 -329 1246 -517 1615 -189 371 -423 623 -677 729 -151 63
-279 75 -436 42z"/>
</g>
</svg>
