<?xml version="1.0" standalone="no"?>
<!DOCTYPE svg PUBLIC "-//W3C//DTD SVG 20010904//EN"
 "http://www.w3.org/TR/2001/REC-SVG-20010904/DTD/svg10.dtd">
<svg version="1.0" xmlns="http://www.w3.org/2000/svg"
 width="1136.000000pt" height="372.000000pt" viewBox="0 0 1136.000000 372.000000"
 preserveAspectRatio="xMidYMid meet">

<g transform="translate(0.000000,372.000000) scale(0.100000,-0.100000)"
fill="#000000" stroke="none">
<path d="M5645 3506 c-154 -26 -277 -67 -428 -142 -248 -124 -404 -276 -847
-824 -490 -606 -691 -789 -977 -890 -213 -75 -408 -104 -683 -104 -220 1 -329
12 -545 55 -282 57 -604 182 -753 293 -281 208 -642 634 -1041 1226 -68 102
-127 185 -130 185 -3 0 -27 -13 -53 -28 l-48 -29 0 -72 0 -73 102 -149 c387
-568 753 -995 1035 -1208 215 -162 626 -313 1010 -371 358 -53 708 -40 1018
40 429 110 645 288 1232 1013 423 524 543 641 767 754 305 153 551 174 911 78
434 -115 773 -309 1270 -725 395 -331 485 -426 900 -950 600 -759 797 -948
1178 -1130 347 -166 656 -223 1250 -232 l347 -6 0 102 0 101 -257 0 c-588 0
-938 61 -1268 220 -193 93 -330 196 -526 397 -151 155 -235 253 -544 643 -403
508 -502 617 -755 839 -497 435 -868 690 -1205 826 -121 49 -359 119 -492 145
-137 27 -357 35 -468 16z"/>
</g>
</svg>
