<?xml version="1.0" encoding="utf-8"?><!DOCTYPE svg PUBLIC "-//W3C//DTD SVG 1.1//EN" "http://www.w3.org/Graphics/SVG/1.1/DTD/svg11.dtd"><svg xmlns="http://www.w3.org/2000/svg" xmlns:xlink="http://www.w3.org/1999/xlink" id="preview" width="600" height="600.000" viewBox="0 0 600 600.000" xunitlength="150" yunitlength="400" xmin="1" xmax="5" ymin="1.2" ymax="2.7" ox="-150" oy="-480"><defs><style type="text/css">@import url("http://cdnjs.cloudflare.com/ajax/libs/KaTeX/0.2.0/katex.min.css")</style></defs><path d="M-18,1080 618,1080 M-150,-18 -150,618.000 M0,1080 0,1080 M150,1080 150,1080 M300,1080 300,1080 M450,1080 450,1080 M600,1080 600,1080 M-150,280 -150,280" stroke-width="2" stroke="black" fill="none"></path><text id="null" x="-150" y="-38" font-style="italic" font-family="KaTeX_Main, serif" font-size="0" font-weight="normal" text-anchor="middle" fill="black" stroke-width="0px">y</text><text id="null" x="638" y="1080" font-style="italic" font-family="KaTeX_Main, serif" font-size="0" font-weight="normal" text-anchor="start" fill="black" stroke-width="0px">x</text><path id="null" d="M85.619,80.000 86.404,80.002 87.190,80.010 87.975,80.024 88.761,80.043 89.546,80.068 90.331,80.098 91.117,80.134 91.902,80.175 92.688,80.222 93.473,80.274 94.258,80.331 95.044,80.394 95.829,80.463 96.615,80.537 97.400,80.616 98.185,80.701 98.971,80.791 99.756,80.887 100.541,80.988 101.327,81.095 102.112,81.207 102.898,81.325 103.683,81.448 104.468,81.577 105.254,81.711 106.039,81.850 106.825,81.995 107.610,82.145 108.395,82.301 109.181,82.462 109.966,82.628 110.752,82.800 111.537,82.978 112.322,83.160 113.108,83.349 113.893,83.542 114.679,83.741 115.464,83.945 116.249,84.155 117.035,84.370 117.820,84.590 118.606,84.816 119.391,85.047 120.176,85.284 120.962,85.526 121.747,85.773 122.533,86.025 123.318,86.283 124.103,86.546 124.889,86.814 125.674,87.088 126.460,87.367 127.245,87.651 128.030,87.941 128.816,88.236 129.601,88.536 130.387,88.841 131.172,89.151 131.957,89.467 132.743,89.788 133.528,90.114 134.314,90.446 135.099,90.782 135.884,91.124 136.670,91.471 137.455,91.823 138.241,92.181 139.026,92.543 139.811,92.911 140.597,93.283 141.382,93.661 142.168,94.044 142.953,94.432 143.738,94.825 144.524,95.224 145.309,95.627 146.095,96.035 146.880,96.449 147.665,96.867 148.451,97.290 149.236,97.719 150.022,98.152 150.807,98.591 151.592,99.034 152.378,99.482 153.163,99.936 153.949,100.394 154.734,100.857 155.519,101.325 156.305,101.798 157.090,102.276 157.876,102.759 158.661,103.246 159.446,103.739 160.232,104.236 161.017,104.738 161.802,105.245 162.588,105.757 163.373,106.273 164.159,106.794 164.944,107.320 165.729,107.851 166.515,108.386 167.300,108.927 168.086,109.471 168.871,110.021 169.656,110.575 170.442,111.134 171.227,111.697 172.013,112.265 172.798,112.838 173.583,113.415 174.369,113.997 175.154,114.583 175.940,115.174 176.725,115.770 177.510,116.369 178.296,116.974 179.081,117.583 179.867,118.196 180.652,118.814 181.437,119.436 182.223,120.062 183.008,120.693 183.794,121.329 184.579,121.968 185.364,122.612 186.150,123.261 186.935,123.913 187.721,124.570 188.506,125.231 189.291,125.897 190.077,126.566 190.862,127.240 191.648,127.918 192.433,128.600 193.218,129.287 194.004,129.977 194.789,130.672 195.575,131.370 196.360,132.073 197.145,132.780 197.931,133.491 198.716,134.206 199.502,134.925 200.287,135.647 201.072,136.374 201.858,137.105 202.643,137.839 203.429,138.578 204.214,139.320 204.999,140.067 205.785,140.817 206.570,141.571 207.356,142.328 208.141,143.090 208.926,143.855 209.712,144.624 210.497,145.397 211.283,146.173 212.068,146.953 212.853,147.737 213.639,148.524 214.424,149.315 215.210,150.110 215.995,150.908 216.780,151.709 217.566,152.515 218.351,153.323 219.137,154.135 219.922,154.951 220.707,155.770 221.493,156.592 222.278,157.418 223.063,158.247 223.849,159.080 224.634,159.915 225.420,160.754 226.205,161.597 226.990,162.442 227.776,163.291 228.561,164.143 229.347,164.998 230.132,165.857 230.917,166.718 231.703,167.583 232.488,168.450 233.274,169.321 234.059,170.195 234.844,171.072 235.630,171.951 236.415,172.834 237.201,173.720 237.986,174.608 238.771,175.500 239.557,176.394 240.342,177.291 241.128,178.191 241.913,179.094 242.698,179.999 243.484,180.908 244.269,181.819 245.055,182.732 245.840,183.649 246.625,184.568 247.411,185.489 248.196,186.413 248.982,187.340 249.767,188.269 250.552,189.201 251.338,190.136 252.123,191.072 252.909,192.011 253.694,192.953 254.479,193.897 255.265,194.843 256.050,195.792 256.836,196.743 257.621,197.696 258.406,198.652 259.192,199.610 259.977,200.570 260.763,201.532 261.548,202.496 262.333,203.463 263.119,204.431 263.904,205.402 264.690,206.374 265.475,207.349 266.260,208.326 267.046,209.304 267.831,210.285 268.617,211.267 269.402,212.252 270.187,213.238 270.973,214.226 271.758,215.216 272.544,216.207 273.329,217.201 274.114,218.196 274.900,219.193 275.685,220.191 276.471,221.191 277.256,222.193 278.041,223.196 278.827,224.201 279.612,225.207 280.397,226.215 281.183,227.225 281.968,228.235 282.754,229.248 283.539,230.261 284.324,231.276 285.110,232.293 285.895,233.310 286.681,234.329 287.466,235.349 288.251,236.371 289.037,237.393 289.822,238.417 290.608,239.442 291.393,240.468 292.178,241.495 292.964,242.523 293.749,243.552 294.535,244.582 295.320,245.613 296.105,246.645 296.891,247.678 297.676,248.712 298.462,249.747 299.247,250.783 300.032,251.819 300.818,252.856 301.603,253.894 302.389,254.933 303.174,255.972 303.959,257.012 304.745,258.052 305.530,259.094 306.316,260.135 307.101,261.178 307.886,262.220 308.672,263.264 309.457,264.307 310.243,265.352 311.028,266.396 311.813,267.441 312.599,268.486 313.384,269.532 314.170,270.578 314.955,271.624 315.740,272.670 316.526,273.717 317.311,274.764 318.097,275.811 318.882,276.858 319.667,277.905 320.453,278.952 321.238,279.999 322.024,281.046 322.809,282.094 323.594,283.141 324.380,284.188 325.165,285.235 325.951,286.281 326.736,287.328 327.521,288.374 328.307,289.420 329.092,290.466 329.878,291.512 330.663,292.557 331.448,293.602 332.234,294.647 333.019,295.691 333.805,296.735 334.590,297.778 335.375,298.821 336.161,299.863 336.946,300.905 337.732,301.946 338.517,302.987 339.302,304.027 340.088,305.066 340.873,306.104 341.658,307.142 342.444,308.179 343.229,309.216 344.015,310.251 344.800,311.286 345.585,312.320 346.371,313.353 347.156,314.385 347.942,315.416 348.727,316.446 349.512,317.475 350.298,318.504 351.083,319.531 351.869,320.557 352.654,321.581 353.439,322.605 354.225,323.628 355.010,324.649 355.796,325.669 356.581,326.688 357.366,327.706 358.152,328.722 358.937,329.737 359.723,330.751 360.508,331.763 361.293,332.774 362.079,333.783 362.864,334.791 363.650,335.797 364.435,336.802 365.220,337.806 366.006,338.807 366.791,339.807 367.577,340.806 368.362,341.803 369.147,342.798 369.933,343.791 370.718,344.783 371.504,345.772 372.289,346.761 373.074,347.747 373.860,348.731 374.645,349.714 375.431,350.694 376.216,351.673 377.001,352.649 377.787,353.624 378.572,354.597 379.358,355.567 380.143,356.536 380.928,357.502 381.714,358.467 382.499,359.429 383.285,360.389 384.070,361.346 384.855,362.302 385.641,363.255 386.426,364.206 387.212,365.155 387.997,366.101 388.782,367.045 389.568,367.987 390.353,368.926 391.139,369.863 391.924,370.797 392.709,371.729 393.495,372.658 394.280,373.585 395.066,374.509 395.851,375.431 396.636,376.350 397.422,377.266 398.207,378.180 398.993,379.091 399.778,379.999 400.563,380.905 401.349,381.807 402.134,382.707 402.919,383.605 403.705,384.499 404.490,385.390 405.276,386.279 406.061,387.164 406.846,388.047 407.632,388.927 408.417,389.804 409.203,390.677 409.988,391.548 410.773,392.416 411.559,393.280 412.344,394.142 413.130,395.000 413.915,395.855 414.700,396.707 415.486,397.556 416.271,398.402 417.057,399.244 417.842,400.083 418.627,400.919 419.413,401.751 420.198,402.581 420.984,403.406 421.769,404.229 422.554,405.048 423.340,405.863 424.125,406.675 424.911,407.484 425.696,408.289 426.481,409.091 427.267,409.889 428.052,410.683 428.838,411.474 429.623,412.262 430.408,413.045 431.194,413.825 431.979,414.602 432.765,415.374 433.550,416.143 434.335,416.909 435.121,417.670 435.906,418.428 436.692,419.182 437.477,419.932 438.262,420.678 439.048,421.421 439.833,422.159 440.619,422.894 441.404,423.624 442.189,424.351 442.975,425.074 443.760,425.793 444.546,426.508 445.331,427.219 446.116,427.925 446.902,428.628 447.687,429.327 448.473,430.021 449.258,430.712 450.043,431.398 450.829,432.080 451.614,432.758 452.400,433.432 453.185,434.102 453.970,434.767 454.756,435.428 455.541,436.085 456.327,436.738 457.112,437.386 457.897,438.030 458.683,438.670 459.468,439.305 460.253,439.936 461.039,440.563 461.824,441.185 462.610,441.803 463.395,442.416 464.180,443.025 464.966,443.629 465.751,444.229 466.537,444.824 467.322,445.415 468.107,446.002 468.893,446.583 469.678,447.161 470.464,447.733 471.249,448.301 472.034,448.865 472.820,449.424 473.605,449.978 474.391,450.527 475.176,451.072 475.961,451.612 476.747,452.148 477.532,452.678 478.318,453.204 479.103,453.726 479.888,454.242 480.674,454.754 481.459,455.261 482.245,455.763 483.030,456.260 483.815,456.752 484.601,457.240 485.386,457.723 486.172,458.201 486.957,458.674 487.742,459.142 488.528,459.605 489.313,460.063 490.099,460.516 490.884,460.965 491.669,461.408 492.455,461.846 493.240,462.280 494.026,462.708 494.811,463.132 495.596,463.550 496.382,463.964 497.167,464.372 497.953,464.775 498.738,465.173 499.523,465.567 500.309,465.955 501.094,466.338 501.880,466.715 502.665,467.088 503.450,467.456 504.236,467.818 505.021,468.175 505.807,468.528 506.592,468.875 507.377,469.216 508.163,469.553 508.948,469.884 509.734,470.211 510.519,470.532 511.304,470.847 512.090,471.158 512.875,471.463 513.661,471.763 514.446,472.058 515.231,472.348 516.017,472.632 516.802,472.911 517.588,473.185 518.373,473.453 519.158,473.716 519.944,473.974 520.729,474.226 521.514,474.473 522.300,474.715 523.085,474.952 523.871,475.183 524.656,475.408 525.441,475.629 526.227,475.844 527.012,476.054 527.798,476.258 528.583,476.457 529.368,476.650 530.154,476.839 530.939,477.021 531.725,477.199 532.510,477.371 533.295,477.537 534.081,477.698 534.866,477.854 535.652,478.004 536.437,478.149 537.222,478.288 538.008,478.422 538.793,478.551 539.579,478.674 540.364,478.792 541.149,478.904 541.935,479.011 542.720,479.112 543.506,479.208 544.291,479.298 545.076,479.383 545.862,479.462 546.647,479.536 547.433,479.605 548.218,479.668 549.003,479.725 549.789,479.777 550.574,479.824 551.360,479.865 552.145,479.901 552.930,479.931 553.716,479.956 554.501,479.975 555.287,479.989 556.072,479.997 556.857,479.999 " stroke-width="5" stroke="blue" fill="none"></path><path id="null" d="M85.619,80.000 86.404,80.002 87.190,80.010 87.975,80.024 88.761,80.043 89.546,80.068 90.331,80.098 91.117,80.134 91.902,80.175 92.688,80.222 93.473,80.274 94.258,80.331 95.044,80.394 95.829,80.463 96.615,80.537 97.400,80.616 98.185,80.701 98.971,80.791 99.756,80.887 100.541,80.988 101.327,81.095 102.112,81.207 102.898,81.325 103.683,81.448 104.468,81.577 105.254,81.711 106.039,81.850 106.825,81.995 107.610,82.145 108.395,82.301 109.181,82.462 109.966,82.628 110.752,82.800 111.537,82.978 112.322,83.160 113.108,83.349 113.893,83.542 114.679,83.741 115.464,83.945 116.249,84.155 117.035,84.370 117.820,84.590 118.606,84.816 119.391,85.047 120.176,85.284 120.962,85.526 121.747,85.773 122.533,86.025 123.318,86.283 124.103,86.546 124.889,86.814 125.674,87.088 126.460,87.367 127.245,87.651 128.030,87.941 128.816,88.236 129.601,88.536 130.387,88.841 131.172,89.151 131.957,89.467 132.743,89.788 133.528,90.114 134.314,90.446 135.099,90.782 135.884,91.124 136.670,91.471 137.455,91.823 138.241,92.181 139.026,92.543 139.811,92.911 140.597,93.283 141.382,93.661 142.168,94.044 142.953,94.432 143.738,94.825 144.524,95.224 145.309,95.627 146.095,96.035 146.880,96.449 147.665,96.867 148.451,97.290 149.236,97.719 150.022,98.152 150.807,98.591 151.592,99.034 152.378,99.482 153.163,99.936 153.949,100.394 154.734,100.857 155.519,101.325 156.305,101.798 157.090,102.276 157.876,102.759 158.661,103.246 159.446,103.739 160.232,104.236 161.017,104.738 161.802,105.245 162.588,105.757 163.373,106.273 164.159,106.794 164.944,107.320 165.729,107.851 166.515,108.386 167.300,108.927 168.086,109.471 168.871,110.021 169.656,110.575 170.442,111.134 171.227,111.697 172.013,112.265 172.798,112.838 173.583,113.415 174.369,113.997 175.154,114.583 175.940,115.174 176.725,115.770 177.510,116.369 178.296,116.974 179.081,117.583 179.867,118.196 180.652,118.814 181.437,119.436 182.223,120.062 183.008,120.693 183.794,121.329 184.579,121.968 185.364,122.612 186.150,123.261 186.935,123.913 187.721,124.570 188.506,125.231 189.291,125.897 190.077,126.566 190.862,127.240 191.648,127.918 192.433,128.600 193.218,129.287 194.004,129.977 194.789,130.672 195.575,131.370 196.360,132.073 197.145,132.780 197.931,133.491 198.716,134.206 199.502,134.925 200.287,135.647 201.072,136.374 201.858,137.105 202.643,137.839 203.429,138.578 204.214,139.320 204.999,140.067 205.785,140.817 206.570,141.571 207.356,142.328 208.141,143.090 208.926,143.855 209.712,144.624 210.497,145.397 211.283,146.173 212.068,146.953 212.853,147.737 213.639,148.524 214.424,149.315 215.210,150.110 215.995,150.908 216.780,151.709 217.566,152.515 218.351,153.323 219.137,154.135 219.922,154.951 220.707,155.770 221.493,156.592 222.278,157.418 223.063,158.247 223.849,159.080 224.634,159.915 225.420,160.754 226.205,161.597 226.990,162.442 227.776,163.291 228.561,164.143 229.347,164.998 230.132,165.857 230.917,166.718 231.703,167.583 232.488,168.450 233.274,169.321 234.059,170.195 234.844,171.072 235.630,171.951 236.415,172.834 237.201,173.720 237.986,174.608 238.771,175.500 239.557,176.394 240.342,177.291 241.128,178.191 241.913,179.094 242.698,179.999 243.484,180.908 244.269,181.819 245.055,182.732 245.840,183.649 246.625,184.568 247.411,185.489 248.196,186.413 248.982,187.340 249.767,188.269 250.552,189.201 251.338,190.136 252.123,191.072 252.909,192.011 253.694,192.953 254.479,193.897 255.265,194.843 256.050,195.792 256.836,196.743 257.621,197.696 258.406,198.652 259.192,199.610 259.977,200.570 260.763,201.532 261.548,202.496 262.333,203.463 263.119,204.431 263.904,205.402 264.690,206.374 265.475,207.349 266.260,208.326 267.046,209.304 267.831,210.285 268.617,211.267 269.402,212.252 270.187,213.238 270.973,214.226 271.758,215.216 272.544,216.207 273.329,217.201 274.114,218.196 274.900,219.193 275.685,220.191 276.471,221.191 277.256,222.193 278.041,223.196 278.827,224.201 279.612,225.207 280.397,226.215 281.183,227.225 281.968,228.235 282.754,229.248 283.539,230.261 284.324,231.276 285.110,232.293 285.895,233.310 286.681,234.329 287.466,235.349 288.251,236.371 289.037,237.393 289.822,238.417 290.608,239.442 291.393,240.468 292.178,241.495 292.964,242.523 293.749,243.552 294.535,244.582 295.320,245.613 296.105,246.645 296.891,247.678 297.676,248.712 298.462,249.747 299.247,250.783 300.032,251.819 300.818,252.856 301.603,253.894 302.389,254.933 303.174,255.972 303.959,257.012 304.745,258.052 305.530,259.094 306.316,260.135 307.101,261.178 307.886,262.220 308.672,263.264 309.457,264.307 310.243,265.352 311.028,266.396 311.813,267.441 312.599,268.486 313.384,269.532 314.170,270.578 314.955,271.624 315.740,272.670 316.526,273.717 317.311,274.764 318.097,275.811 318.882,276.858 319.667,277.905 320.453,278.952 321.238,279.999 322.024,281.046 322.809,282.094 323.594,283.141 324.380,284.188 325.165,285.235 325.951,286.281 326.736,287.328 327.521,288.374 328.307,289.420 329.092,290.466 329.878,291.512 330.663,292.557 331.448,293.602 332.234,294.647 333.019,295.691 333.805,296.735 334.590,297.778 335.375,298.821 336.161,299.863 336.946,300.905 337.732,301.946 338.517,302.987 339.302,304.027 340.088,305.066 340.873,306.104 341.658,307.142 342.444,308.179 343.229,309.216 344.015,310.251 344.800,311.286 345.585,312.320 346.371,313.353 347.156,314.385 347.942,315.416 348.727,316.446 349.512,317.475 350.298,318.504 351.083,319.531 351.869,320.557 352.654,321.581 353.439,322.605 354.225,323.628 355.010,324.649 355.796,325.669 356.581,326.688 357.366,327.706 358.152,328.722 358.937,329.737 359.723,330.751 360.508,331.763 361.293,332.774 362.079,333.783 362.864,334.791 363.650,335.797 364.435,336.802 365.220,337.806 366.006,338.807 366.791,339.807 367.577,340.806 368.362,341.803 369.147,342.798 369.933,343.791 370.718,344.783 371.504,345.772 372.289,346.761 373.074,347.747 373.860,348.731 374.645,349.714 375.431,350.694 376.216,351.673 377.001,352.649 377.787,353.624 378.572,354.597 379.358,355.567 380.143,356.536 380.928,357.502 381.714,358.467 382.499,359.429 383.285,360.389 384.070,361.346 384.855,362.302 385.641,363.255 386.426,364.206 387.212,365.155 387.997,366.101 388.782,367.045 389.568,367.987 390.353,368.926 391.139,369.863 391.924,370.797 392.709,371.729 393.495,372.658 394.280,373.585 395.066,374.509 395.851,375.431 396.636,376.350 397.422,377.266 398.207,378.180 398.993,379.091 399.778,379.999 400.563,380.905 401.349,381.807 402.134,382.707 402.919,383.605 403.705,384.499 404.490,385.390 405.276,386.279 406.061,387.164 406.846,388.047 407.632,388.927 408.417,389.804 409.203,390.677 409.988,391.548 410.773,392.416 411.559,393.280 412.344,394.142 413.130,395.000 413.915,395.855 414.700,396.707 415.486,397.556 416.271,398.402 417.057,399.244 417.842,400.083 418.627,400.919 419.413,401.751 420.198,402.581 420.984,403.406 421.769,404.229 422.554,405.048 423.340,405.863 424.125,406.675 424.911,407.484 425.696,408.289 426.481,409.091 427.267,409.889 428.052,410.683 428.838,411.474 429.623,412.262 430.408,413.045 431.194,413.825 431.979,414.602 432.765,415.374 433.550,416.143 434.335,416.909 435.121,417.670 435.906,418.428 436.692,419.182 437.477,419.932 438.262,420.678 439.048,421.421 439.833,422.159 440.619,422.894 441.404,423.624 442.189,424.351 442.975,425.074 443.760,425.793 444.546,426.508 445.331,427.219 446.116,427.925 446.902,428.628 447.687,429.327 448.473,430.021 449.258,430.712 450.043,431.398 450.829,432.080 451.614,432.758 452.400,433.432 453.185,434.102 453.970,434.767 454.756,435.428 455.541,436.085 456.327,436.738 457.112,437.386 457.897,438.030 458.683,438.670 459.468,439.305 460.253,439.936 461.039,440.563 461.824,441.185 462.610,441.803 463.395,442.416 464.180,443.025 464.966,443.629 465.751,444.229 466.537,444.824 467.322,445.415 468.107,446.002 468.893,446.583 469.678,447.161 470.464,447.733 471.249,448.301 472.034,448.865 472.820,449.424 473.605,449.978 474.391,450.527 475.176,451.072 475.961,451.612 476.747,452.148 477.532,452.678 478.318,453.204 479.103,453.726 479.888,454.242 480.674,454.754 481.459,455.261 482.245,455.763 483.030,456.260 483.815,456.752 484.601,457.240 485.386,457.723 486.172,458.201 486.957,458.674 487.742,459.142 488.528,459.605 489.313,460.063 490.099,460.516 490.884,460.965 491.669,461.408 492.455,461.846 493.240,462.280 494.026,462.708 494.811,463.132 495.596,463.550 496.382,463.964 497.167,464.372 497.953,464.775 498.738,465.173 499.523,465.567 500.309,465.955 501.094,466.338 501.880,466.715 502.665,467.088 503.450,467.456 504.236,467.818 505.021,468.175 505.807,468.528 506.592,468.875 507.377,469.216 508.163,469.553 508.948,469.884 509.734,470.211 510.519,470.532 511.304,470.847 512.090,471.158 512.875,471.463 513.661,471.763 514.446,472.058 515.231,472.348 516.017,472.632 516.802,472.911 517.588,473.185 518.373,473.453 519.158,473.716 519.944,473.974 520.729,474.226 521.514,474.473 522.300,474.715 523.085,474.952 523.871,475.183 524.656,475.408 525.441,475.629 526.227,475.844 527.012,476.054 527.798,476.258 528.583,476.457 529.368,476.650 530.154,476.839 530.939,477.021 531.725,477.199 532.510,477.371 533.295,477.537 534.081,477.698 534.866,477.854 535.652,478.004 536.437,478.149 537.222,478.288 538.008,478.422 538.793,478.551 539.579,478.674 540.364,478.792 541.149,478.904 541.935,479.011 542.720,479.112 543.506,479.208 544.291,479.298 545.076,479.383 545.862,479.462 546.647,479.536 547.433,479.605 548.218,479.668 549.003,479.725 549.789,479.777 550.574,479.824 551.360,479.865 552.145,479.901 552.930,479.931 553.716,479.956 554.501,479.975 555.287,479.989 556.072,479.997 556.857,479.999 " stroke-width="9" stroke="blue" fill="none"></path></svg>