<?xml version="1.0" encoding="utf-8"?><!DOCTYPE svg PUBLIC "-//W3C//DTD SVG 1.1//EN" "http://www.w3.org/Graphics/SVG/1.1/DTD/svg11.dtd"><svg xmlns="http://www.w3.org/2000/svg" xmlns:xlink="http://www.w3.org/1999/xlink" id="preview" width="602" height="600.000" viewBox="0 0 602 600.000" xunitlength="86" yunitlength="400" xmin="6" xmax="13" ymin="1.2" ymax="2.7" ox="-516" oy="-480"><defs><style type="text/css">@import url("http://cdnjs.cloudflare.com/ajax/libs/KaTeX/0.2.0/katex.min.css")</style></defs><path d="M-18.000,1080 620,1080 M-516,-18.000 -516,618.000 M0,1080 0,1080 M86,1080 86,1080 M172,1080 172,1080 M258,1080 258,1080 M344,1080 344,1080 M430,1080 430,1080 M516,1080 516,1080 M602,1080 602,1080 M-516,280 -516,280" stroke-width="2" stroke="black" fill="none"></path><text id="null" x="-516" y="-38" font-style="italic" font-family="KaTeX_Main, serif" font-size="0" font-weight="normal" text-anchor="middle" fill="black" stroke-width="0px">y</text><text id="null" x="640" y="1080" font-style="italic" font-family="KaTeX_Main, serif" font-size="0" font-weight="normal" text-anchor="start" fill="black" stroke-width="0px">x</text><path id="null" d="M24.353,80.000 25.254,80.010 26.155,80.043 27.055,80.098 27.956,80.175 28.856,80.274 29.757,80.394 30.658,80.537 31.558,80.701 32.459,80.887 33.359,81.095 34.260,81.325 35.161,81.577 36.061,81.850 36.962,82.145 37.862,82.462 38.763,82.800 39.663,83.160 40.564,83.542 41.465,83.945 42.365,84.370 43.266,84.816 44.166,85.284 45.067,85.773 45.968,86.283 46.868,86.814 47.769,87.367 48.669,87.941 49.570,88.536 50.471,89.151 51.371,89.788 52.272,90.446 53.172,91.124 54.073,91.823 54.973,92.543 55.874,93.283 56.775,94.044 57.675,94.825 58.576,95.627 59.476,96.449 60.377,97.290 61.278,98.152 62.178,99.034 63.079,99.936 63.979,100.857 64.880,101.798 65.781,102.759 66.681,103.739 67.582,104.738 68.482,105.757 69.383,106.794 70.283,107.851 71.184,108.927 72.085,110.021 72.985,111.134 73.886,112.265 74.786,113.415 75.687,114.583 76.588,115.770 77.488,116.974 78.389,118.196 79.289,119.436 80.190,120.693 81.091,121.968 81.991,123.261 82.892,124.570 83.792,125.897 84.693,127.240 85.593,128.600 86.494,129.977 87.395,131.370 88.295,132.780 89.196,134.206 90.096,135.647 90.997,137.105 91.898,138.578 92.798,140.067 93.699,141.571 94.599,143.090 95.500,144.624 96.401,146.173 97.301,147.737 98.202,149.315 99.102,150.908 100.003,152.515 100.904,154.135 101.804,155.770 102.705,157.418 103.605,159.080 104.506,160.754 105.406,162.442 106.307,164.143 107.208,165.857 108.108,167.583 109.009,169.321 109.909,171.072 110.810,172.834 111.711,174.608 112.611,176.394 113.512,178.191 114.412,179.999 115.313,181.819 116.214,183.649 117.114,185.489 118.015,187.340 118.915,189.201 119.816,191.072 120.716,192.953 121.617,194.843 122.518,196.743 123.418,198.652 124.319,200.570 125.219,202.496 126.120,204.431 127.021,206.374 127.921,208.326 128.822,210.285 129.722,212.252 130.623,214.226 131.524,216.207 132.424,218.196 133.325,220.191 134.225,222.193 135.126,224.201 136.026,226.215 136.927,228.235 137.828,230.261 138.728,232.293 139.629,234.329 140.529,236.371 141.430,238.417 142.331,240.468 143.231,242.523 144.132,244.582 145.032,246.645 145.933,248.712 146.834,250.783 147.734,252.856 148.635,254.933 149.535,257.012 150.436,259.094 151.336,261.178 152.237,263.264 153.138,265.352 154.038,267.441 154.939,269.532 155.839,271.624 156.740,273.717 157.641,275.811 158.541,277.905 159.442,279.999 160.342,282.094 161.243,284.188 162.144,286.281 163.044,288.374 163.945,290.466 164.845,292.557 165.746,294.647 166.646,296.735 167.547,298.821 168.448,300.905 169.348,302.987 170.249,305.066 171.149,307.142 172.050,309.216 172.951,311.286 173.851,313.353 174.752,315.416 175.652,317.475 176.553,319.531 177.454,321.581 178.354,323.628 179.255,325.669 180.155,327.706 181.056,329.737 181.957,331.763 182.857,333.783 183.758,335.797 184.658,337.806 185.559,339.807 186.459,341.803 187.360,343.791 188.261,345.772 189.161,347.747 190.062,349.714 190.962,351.673 191.863,353.624 192.764,355.567 193.664,357.502 194.565,359.429 195.465,361.346 196.366,363.255 197.267,365.155 198.167,367.045 199.068,368.926 199.968,370.797 200.869,372.658 201.769,374.509 202.670,376.350 203.571,378.180 204.471,379.999 205.372,381.807 206.272,383.605 207.173,385.390 208.074,387.164 208.974,388.927 209.875,390.677 210.775,392.416 211.676,394.142 212.577,395.855 213.477,397.556 214.378,399.244 215.278,400.919 216.179,402.581 217.079,404.229 217.980,405.863 218.881,407.484 219.781,409.091 220.682,410.683 221.582,412.262 222.483,413.825 223.384,415.374 224.284,416.909 225.185,418.428 226.085,419.932 226.986,421.421 227.887,422.894 228.787,424.351 229.688,425.793 230.588,427.219 231.489,428.628 232.389,430.021 233.290,431.398 234.191,432.758 235.091,434.102 235.992,435.428 236.892,436.738 237.793,438.030 238.694,439.305 239.594,440.563 240.495,441.803 241.395,443.025 242.296,444.229 243.197,445.415 244.097,446.583 244.998,447.733 245.898,448.865 246.799,449.978 247.700,451.072 248.600,452.148 249.501,453.204 250.401,454.242 251.302,455.261 252.202,456.260 253.103,457.240 254.004,458.201 254.904,459.142 255.805,460.063 256.705,460.965 257.606,461.846 258.507,462.708 259.407,463.550 260.308,464.372 261.208,465.173 262.109,465.955 263.010,466.715 263.910,467.456 264.811,468.175 265.711,468.875 266.612,469.553 267.512,470.211 268.413,470.847 269.314,471.463 270.214,472.058 271.115,472.632 272.015,473.185 272.916,473.716 273.817,474.226 274.717,474.715 275.618,475.183 276.518,475.629 277.419,476.054 278.320,476.457 279.220,476.839 280.121,477.199 281.021,477.537 281.922,477.854 282.822,478.149 283.723,478.422 284.624,478.674 285.524,478.904 286.425,479.112 287.325,479.298 288.226,479.462 289.127,479.605 290.027,479.725 290.928,479.824 291.828,479.901 292.729,479.956 293.630,479.989 294.530,479.999 295.431,479.989 296.331,479.956 297.232,479.901 298.132,479.824 299.033,479.725 299.934,479.605 300.834,479.462 301.735,479.298 302.635,479.112 303.536,478.904 304.437,478.674 305.337,478.423 306.238,478.149 307.138,477.854 308.039,477.537 308.940,477.199 309.840,476.839 310.741,476.457 311.641,476.054 312.542,475.629 313.443,475.183 314.343,474.715 315.244,474.227 316.144,473.716 317.045,473.185 317.945,472.632 318.846,472.058 319.747,471.464 320.647,470.848 321.548,470.211 322.448,469.553 323.349,468.875 324.250,468.176 325.150,467.456 326.051,466.716 326.951,465.955 327.852,465.174 328.753,464.372 329.653,463.551 330.554,462.709 331.454,461.847 332.355,460.965 333.255,460.064 334.156,459.142 335.057,458.201 335.957,457.241 336.858,456.261 337.758,455.261 338.659,454.243 339.560,453.205 340.460,452.148 341.361,451.073 342.261,449.978 343.162,448.865 344.063,447.734 344.963,446.584 345.864,445.416 346.764,444.230 347.665,443.025 348.565,441.803 349.466,440.563 350.367,439.306 351.267,438.031 352.168,436.739 353.068,435.429 353.969,434.103 354.870,432.759 355.770,431.399 356.671,430.022 357.571,428.629 358.472,427.219 359.373,425.794 360.273,424.352 361.174,422.895 362.074,421.421 362.975,419.933 363.875,418.429 364.776,416.909 365.677,415.375 366.577,413.826 367.478,412.262 368.378,410.684 369.279,409.092 370.180,407.485 371.080,405.864 371.981,404.230 372.881,402.582 373.782,400.920 374.683,399.245 375.583,397.557 376.484,395.856 377.384,394.143 378.285,392.417 379.185,390.678 380.086,388.928 380.987,387.166 381.887,385.391 382.788,383.606 383.688,381.809 384.589,380.000 385.490,378.181 386.390,376.351 387.291,374.510 388.191,372.659 389.092,370.798 389.993,368.927 390.893,367.046 391.794,365.156 392.694,363.256 393.595,361.348 394.496,359.430 395.396,357.503 396.297,355.568 397.197,353.625 398.098,351.674 398.998,349.715 399.899,347.748 400.800,345.774 401.700,343.792 402.601,341.804 403.501,339.808 404.402,337.807 405.303,335.799 406.203,333.784 407.104,331.764 408.004,329.738 408.905,327.707 409.806,325.671 410.706,323.629 411.607,321.583 412.507,319.532 413.408,317.477 414.308,315.417 415.209,313.354 416.110,311.287 417.010,309.217 417.911,307.144 418.811,305.067 419.712,302.988 420.613,300.906 421.513,298.822 422.414,296.736 423.314,294.648 424.215,292.559 425.116,290.468 426.016,288.376 426.917,286.283 427.817,284.189 428.718,282.095 429.618,280.000 430.519,277.906 431.420,275.812 432.320,273.718 433.221,271.625 434.121,269.533 435.022,267.442 435.923,265.353 436.823,263.265 437.724,261.179 438.624,259.095 439.525,257.013 440.426,254.934 441.326,252.857 442.227,250.784 443.127,248.714 444.028,246.647 444.928,244.584 445.829,242.524 446.730,240.469 447.630,238.418 448.531,236.372 449.431,234.330 450.332,232.294 451.233,230.262 452.133,228.237 453.034,226.216 453.934,224.202 454.835,222.194 455.736,220.192 456.636,218.197 457.537,216.209 458.437,214.227 459.338,212.253 460.239,210.286 461.139,208.327 462.040,206.376 462.940,204.432 463.841,202.497 464.741,200.571 465.642,198.653 466.543,196.744 467.443,194.845 468.344,192.954 469.244,191.073 470.145,189.202 471.046,187.341 471.946,185.490 472.847,183.650 473.747,181.820 474.648,180.000 475.549,178.192 476.449,176.395 477.350,174.609 478.250,172.835 479.151,171.073 480.051,169.322 480.952,167.584 481.853,165.858 482.753,164.144 483.654,162.443 484.554,160.755 485.455,159.081 486.356,157.419 487.256,155.771 488.157,154.136 489.057,152.516 489.958,150.909 490.859,149.316 491.759,147.738 492.660,146.174 493.560,144.625 494.461,143.091 495.361,141.572 496.262,140.068 497.163,138.579 498.063,137.106 498.964,135.648 499.864,134.207 500.765,132.781 501.666,131.371 502.566,129.978 503.467,128.601 504.367,127.241 505.268,125.898 506.169,124.571 507.069,123.262 507.970,121.969 508.870,120.694 509.771,119.437 510.671,118.197 511.572,116.975 512.473,115.770 513.373,114.584 514.274,113.416 515.174,112.266 516.075,111.135 516.976,110.022 517.876,108.927 518.777,107.852 519.677,106.795 520.578,105.757 521.479,104.739 522.379,103.739 523.280,102.759 524.180,101.799 525.081,100.858 525.982,99.936 526.882,99.035 527.783,98.153 528.683,97.291 529.584,96.449 530.484,95.627 531.385,94.826 532.286,94.045 533.186,93.284 534.087,92.544 534.987,91.824 535.888,91.125 536.789,90.446 537.689,89.789 538.590,89.152 539.490,88.536 540.391,87.941 541.292,87.367 542.192,86.815 543.093,86.283 543.993,85.773 544.894,85.284 545.794,84.816 546.695,84.370 547.596,83.946 548.496,83.542 549.397,83.161 550.297,82.800 551.198,82.462 552.099,82.145 552.999,81.850 553.900,81.577 554.800,81.325 555.701,81.095 556.602,80.887 557.502,80.701 558.403,80.537 559.303,80.394 560.204,80.274 561.104,80.175 562.005,80.098 562.906,80.043 563.806,80.010 564.707,80.000 " stroke-width="9" stroke="blue" fill="none"></path></svg>