<?xml version="1.0" standalone="no"?>
<!DOCTYPE svg PUBLIC "-//W3C//DTD SVG 20010904//EN"
 "http://www.w3.org/TR/2001/REC-SVG-20010904/DTD/svg10.dtd">
<svg version="1.0" xmlns="http://www.w3.org/2000/svg"
 width="145.000000pt" height="58.000000pt" viewBox="0 0 145.000000 58.000000"
 preserveAspectRatio="xMidYMid meet">

<g transform="translate(0.000000,58.000000) scale(0.100000,-0.100000)"
fill="#000000" stroke="none">
<path d="M455 391 c-114 -33 -236 -108 -379 -231 -73 -64 -75 -66 -75 -112 -1
-66 14 -63 110 22 152 134 262 204 373 235 86 25 220 17 304 -18 85 -35 208
-119 311 -211 l84 -76 61 0 61 1 -101 97 c-160 154 -297 246 -427 287 -96 31
-229 33 -322 6z"/>
</g>
</svg>
