<?xml version="1.0" encoding="utf-8"?><!DOCTYPE svg PUBLIC "-//W3C//DTD SVG 1.1//EN" "http://www.w3.org/Graphics/SVG/1.1/DTD/svg11.dtd"><svg xmlns="http://www.w3.org/2000/svg" xmlns:xlink="http://www.w3.org/1999/xlink" id="preview" width="500" height="500" viewBox="0 0 500 500" xunitlength="38" yunitlength="38" xmin="5" xmax="15" ymin="5" ymax="15" ox="-150" oy="-150"><defs><style type="text/css">@import url("http://cdnjs.cloudflare.com/ajax/libs/KaTeX/0.2.0/katex.min.css")</style></defs><path d="M25,650 435,650 M-150,65 -150,475 M40,655.75 40,644.25 M78,655.75 78,644.25 M116,655.75 116,644.25 M154,655.75 154,644.25 M192,655.75 192,644.25 M230,655.75 230,644.25 M268,655.75 268,644.25 M306,655.75 306,644.25 M344,655.75 344,644.25 M382,655.75 382,644.25 M420,655.75 420,644.25 M-144.25,460 -155.75,460 M-144.25,422 -155.75,422 M-144.25,384 -155.75,384 M-144.25,346 -155.75,346 M-144.25,308 -155.75,308 M-144.25,270 -155.75,270 M-144.25,232 -155.75,232 M-144.25,194 -155.75,194 M-144.25,156 -155.75,156 M-144.25,118 -155.75,118 M-144.25,80 -155.75,80" stroke-width="2" stroke="black" fill="none"></path><text id="null" x="-150" y="40.333" font-style="italic" font-family="KaTeX_Main, serif" font-size="23" font-weight="normal" text-anchor="middle" fill="black" stroke-width="0px"></text><text id="null" x="459.666" y="657.666" font-style="italic" font-family="KaTeX_Main, serif" font-size="23" font-weight="normal" text-anchor="start" fill="black" stroke-width="0px"></text><path id="null" d="M28.599,395.229 29.359,394.501 30.119,393.769 30.879,393.032 31.639,392.292 32.399,391.549 33.159,390.803 33.919,390.054 34.679,389.302 35.439,388.549 36.199,387.793 36.959,387.036 37.719,386.278 38.479,385.519 39.239,384.759 39.999,384.000 40.759,383.240 41.519,382.480 42.279,381.721 43.039,380.963 43.799,380.206 44.559,379.450 45.319,378.697 46.079,377.945 46.839,377.196 47.599,376.450 48.359,375.707 49.119,374.967 49.879,374.230 50.639,373.498 51.399,372.770 52.159,372.046 52.919,371.327 53.679,370.613 54.439,369.905 55.199,369.202 55.959,368.505 56.719,367.814 57.479,367.129 58.239,366.452 58.999,365.781 59.759,365.118 60.519,364.462 61.279,363.814 62.039,363.175 62.799,362.543 63.559,361.920 64.319,361.306 65.079,360.701 65.839,360.105 66.599,359.519 67.359,358.943 68.119,358.377 68.879,357.821 69.639,357.275 70.399,356.740 71.159,356.216 71.919,355.703 72.679,355.202 73.439,354.711 74.199,354.233 74.959,353.767 75.719,353.312 76.479,352.870 77.239,352.441 77.999,352.024 78.759,351.619 79.519,351.228 80.279,350.850 81.039,350.485 81.799,350.134 82.559,349.796 83.319,349.471 84.079,349.161 84.839,348.864 85.599,348.582 86.359,348.314 87.119,348.060 87.879,347.820 88.639,347.595 89.399,347.384 90.159,347.188 90.919,347.007 91.679,346.841 92.439,346.689 93.199,346.552 93.959,346.431 94.719,346.324 95.479,346.233 96.239,346.156 96.999,346.095 97.759,346.049 98.519,346.018 99.279,346.002 100.039,346.001 100.799,346.016 101.559,346.045 102.319,346.090 103.079,346.151 103.839,346.226 104.599,346.316 105.359,346.422 106.119,346.542 106.879,346.678 107.639,346.828 108.399,346.993 109.159,347.173 109.919,347.368 110.679,347.578 111.439,347.802 112.199,348.040 112.959,348.293 113.719,348.560 114.479,348.841 115.239,349.137 115.999,349.446 116.759,349.769 117.519,350.106 118.279,350.457 119.039,350.820 119.799,351.197 120.559,351.588 121.319,351.991 122.079,352.407 122.839,352.835 123.599,353.277 124.359,353.730 125.119,354.195 125.879,354.673 126.639,355.162 127.399,355.663 128.159,356.175 128.919,356.698 129.679,357.232 130.439,357.777 131.199,358.332 131.959,358.897 132.719,359.473 133.479,360.058 134.239,360.653 134.999,361.257 135.759,361.871 136.519,362.493 137.279,363.124 138.039,363.763 138.799,364.410 139.559,365.065 140.319,365.728 141.079,366.398 141.839,367.075 142.599,367.759 143.359,368.449 144.119,369.146 144.879,369.848 145.639,370.556 146.399,371.270 147.159,371.988 147.919,372.712 148.679,373.440 149.439,374.172 150.199,374.908 150.959,375.648 151.719,376.391 152.479,377.137 153.239,377.886 153.999,378.637 154.759,379.390 155.519,380.145 156.279,380.902 157.039,381.660 157.799,382.419 158.559,383.179 159.319,383.939 160.079,384.699 160.839,385.458 161.599,386.218 162.359,386.976 163.119,387.733 163.879,388.488 164.639,389.242 165.399,389.994 166.159,390.743 166.919,391.489 167.679,392.233 168.439,392.973 169.199,393.710 169.959,394.443 170.719,395.171 171.479,395.895 172.239,396.615 172.999,397.329 173.759,398.038 174.519,398.742 175.279,399.439 176.039,400.130 176.799,400.815 177.559,401.493 178.319,402.164 179.079,402.828 179.839,403.485 180.599,404.133 181.359,404.774 182.119,405.406 182.879,406.029 183.639,406.644 184.399,407.250 185.159,407.846 185.919,408.433 186.679,409.010 187.439,409.578 188.199,410.134 188.959,410.681 189.719,411.217 190.479,411.742 191.239,412.255 191.999,412.758 192.759,413.249 193.519,413.728 194.279,414.196 195.039,414.651 195.799,415.094 196.559,415.525 197.319,415.943 198.079,416.348 198.839,416.740 199.599,417.119 200.359,417.485 201.119,417.838 201.879,418.177 202.639,418.502 203.399,418.814 204.159,419.111 204.919,419.395 205.679,419.664 206.439,419.920 207.199,420.160 207.959,420.387 208.719,420.598 209.479,420.796 210.239,420.978 210.999,421.146 211.759,421.298 212.519,421.436 213.279,421.559 214.039,421.667 214.799,421.760 215.559,421.837 216.319,421.900 217.079,421.947 217.839,421.980 218.599,421.997 219.359,421.998 220.119,421.985 220.879,421.956 221.639,421.913 222.399,421.854 223.159,421.780 223.919,421.691 224.679,421.586 225.439,421.467 226.199,421.333 226.959,421.184 227.719,421.019 228.479,420.841 229.239,420.647 229.999,420.439 230.759,420.216 231.519,419.978 232.279,419.727 233.039,419.461 233.799,419.181 234.559,418.886 235.319,418.578 236.079,418.256 236.839,417.920 237.599,417.571 238.359,417.208 239.119,416.832 239.879,416.443 240.639,416.041 241.399,415.626 242.159,415.198 242.919,414.758 243.679,414.306 244.439,413.841 245.199,413.365 245.959,412.876 246.719,412.377 247.479,411.866 248.239,411.343 248.999,410.810 249.759,410.266 250.519,409.712 251.279,409.147 252.039,408.572 252.799,407.988 253.559,407.394 254.319,406.790 255.079,406.177 255.839,405.556 256.599,404.926 257.359,404.287 258.119,403.641 258.879,402.986 259.639,402.324 260.399,401.655 261.159,400.978 261.919,400.295 262.679,399.605 263.439,398.909 264.199,398.207 264.959,397.499 265.719,396.786 266.479,396.068 267.239,395.345 267.999,394.618 268.759,393.886 269.519,393.150 270.279,392.411 271.039,391.668 271.799,390.922 272.559,390.173 273.319,389.422 274.079,388.669 274.839,387.914 275.599,387.157 276.359,386.399 277.119,385.640 277.879,384.881 278.639,384.121 279.399,383.361 280.159,382.601 280.919,381.842 281.679,381.084 282.439,380.327 283.199,379.571 283.959,378.817 284.719,378.065 285.479,377.316 286.239,376.569 286.999,375.825 287.759,375.085 288.519,374.348 289.279,373.615 290.039,372.886 290.799,372.161 291.559,371.441 292.319,370.727 293.079,370.017 293.839,369.313 294.599,368.615 295.359,367.924 296.119,367.238 296.879,366.560 297.639,365.888 298.399,365.223 299.159,364.566 299.919,363.917 300.679,363.276 301.439,362.643 302.199,362.019 302.959,361.403 303.719,360.797 304.479,360.200 305.239,359.612 305.999,359.034 306.759,358.466 307.519,357.909 308.279,357.361 309.039,356.825 309.799,356.299 310.559,355.784 311.319,355.281 312.079,354.789 312.839,354.309 313.599,353.840 314.359,353.384 315.119,352.940 315.879,352.508 316.639,352.089 317.399,351.683 318.159,351.290 318.919,350.909 319.679,350.542 320.439,350.189 321.199,349.849 321.959,349.522 322.719,349.210 323.479,348.911 324.239,348.626 324.999,348.356 325.759,348.099 326.519,347.857 327.279,347.630 328.039,347.417 328.799,347.219 329.559,347.035 330.319,346.866 331.079,346.712 331.839,346.573 332.599,346.449 333.359,346.340 334.119,346.246 334.879,346.167 335.639,346.103 336.399,346.055 337.159,346.021 337.919,346.003 338.679,346.000 339.439,346.012 340.199,346.040 340.959,346.082 341.719,346.140 342.479,346.213 343.239,346.301 343.999,346.404 344.759,346.522 345.519,346.655 346.279,346.803 347.039,346.966 347.799,347.144 348.559,347.336 349.319,347.543 350.079,347.765 350.839,348.001 351.599,348.252 352.359,348.517 353.119,348.796 353.879,349.089 354.639,349.396 355.399,349.717 356.159,350.052 356.919,350.400 357.679,350.761 358.439,351.136 359.199,351.525 359.959,351.926 360.719,352.340 361.479,352.766 362.239,353.205 362.999,353.657 363.759,354.120 364.519,354.596 365.279,355.083 366.039,355.582 366.799,356.092 367.559,356.614 368.319,357.146 369.079,357.689 369.839,358.243 370.599,358.806 371.359,359.380 372.119,359.964 372.879,360.558 373.639,361.160 374.399,361.772 375.159,362.393 375.919,363.023 376.679,363.661 377.439,364.307 378.199,364.960 378.959,365.622 379.719,366.291 380.479,366.967 381.239,367.649 381.999,368.339 382.759,369.034 383.519,369.736 384.279,370.443 385.039,371.156 385.799,371.873 386.559,372.596 387.319,373.323 388.079,374.055 388.839,374.790 389.599,375.529 390.359,376.272 391.119,377.017 391.879,377.766 392.639,378.517 393.399,379.270 394.159,380.025 394.919,380.781 395.679,381.539 396.439,382.298 397.199,383.058 397.959,383.818 398.719,384.578 399.479,385.337 400.239,386.097 400.999,386.855 401.759,387.612 402.519,388.368 403.279,389.122 404.039,389.874 404.799,390.624 405.559,391.371 406.319,392.115 407.079,392.855 407.839,393.593 408.599,394.326 409.359,395.055 410.119,395.780 410.879,396.500 411.639,397.215 412.399,397.925 413.159,398.630 413.919,399.328 414.679,400.020 415.439,400.706 416.199,401.386 416.959,402.058 417.719,402.723 418.479,403.380 419.239,404.030 419.999,404.672 420.759,405.305 421.519,405.930 422.279,406.547 423.039,407.154 423.799,407.752 424.559,408.340 425.319,408.919 426.079,409.488 426.839,410.046 427.599,410.594 428.359,411.132 429.119,411.659 429.879,412.174 430.639,412.678 431.399,413.171 " stroke-width="9" stroke="black" fill="none"></path></svg>