<?xml version="1.0" encoding="utf-8"?><!DOCTYPE svg PUBLIC "-//W3C//DTD SVG 1.1//EN" "http://www.w3.org/Graphics/SVG/1.1/DTD/svg11.dtd"><svg xmlns="http://www.w3.org/2000/svg" xmlns:xlink="http://www.w3.org/1999/xlink" id="preview" width="598" height="598" viewBox="0 0 598 598" xunitlength="52" yunitlength="52" xmin="1" xmax="10" ymin="1" ymax="10" ox="-12" oy="-12"><defs><style type="text/css">@import url("http://cdnjs.cloudflare.com/ajax/libs/KaTeX/0.2.0/katex.min.css")</style></defs><path d="M22.060,610 525.94,610 M-12,72.06 -12,575.94 M40,618 40,602 M92,618 92,602 M144,618 144,602 M196,618 196,602 M248,618 248,602 M300,618 300,602 M352,618 352,602 M404,618 404,602 M456,618 456,602 M508,618 508,602 M-4,558 -20,558 M-4,506 -20,506 M-4,454 -20,454 M-4,402 -20,402 M-4,350 -20,350 M-4,298 -20,298 M-4,246 -20,246 M-4,194 -20,194 M-4,142 -20,142 M-4,90 -20,90" stroke-width="2" stroke="black" fill="none"></path><text id="null" x="-12" y="41.453" font-style="italic" font-family="KaTeX_Main, serif" font-size="32" font-weight="normal" text-anchor="middle" fill="black" stroke-width="0px"></text><text id="null" x="556.546" y="620.666" font-style="italic" font-family="KaTeX_Main, serif" font-size="32" font-weight="normal" text-anchor="start" fill="black" stroke-width="0px"></text><path id="null" d="M25.96,315.322 26.739,314.745 27.519,314.176 28.299,313.614 29.079,313.061 29.859,312.516 30.639,311.980 31.419,311.452 32.199,310.933 32.979,310.423 33.759,309.921 34.539,309.429 35.319,308.945 36.099,308.471 36.879,308.006 37.659,307.551 38.439,307.105 39.219,306.669 39.999,306.243 40.779,305.827 41.559,305.420 42.339,305.023 43.119,304.637 43.899,304.261 44.679,303.895 45.459,303.539 46.239,303.194 47.019,302.860 47.799,302.536 48.579,302.223 49.359,301.920 50.139,301.628 50.919,301.347 51.699,301.078 52.479,300.819 53.259,300.571 54.039,300.334 54.819,300.109 55.599,299.894 56.379,299.691 57.159,299.500 57.939,299.319 58.719,299.151 59.499,298.993 60.279,298.847 61.059,298.713 61.839,298.590 62.619,298.478 63.399,298.378 64.179,298.290 64.959,298.214 65.739,298.149 66.519,298.096 67.299,298.054 68.079,298.024 68.859,298.006 69.639,298.000 70.419,298.005 71.199,298.022 71.979,298.050 72.759,298.091 73.539,298.143 74.319,298.206 75.099,298.282 75.879,298.369 76.659,298.467 77.439,298.577 78.219,298.699 78.999,298.832 79.779,298.977 80.559,299.133 81.339,299.301 82.119,299.480 82.899,299.671 83.679,299.872 84.459,300.085 85.239,300.310 86.019,300.545 86.799,300.792 87.579,301.050 88.359,301.318 89.139,301.598 89.919,301.888 90.699,302.190 91.479,302.502 92.259,302.825 93.039,303.158 93.819,303.502 94.599,303.857 95.379,304.221 96.159,304.597 96.939,304.982 97.719,305.377 98.499,305.783 99.279,306.198 100.059,306.624 100.839,307.059 101.619,307.503 102.399,307.958 103.179,308.421 103.959,308.894 104.739,309.377 105.519,309.868 106.299,310.369 107.079,310.878 107.859,311.396 108.639,311.923 109.419,312.459 110.199,313.003 110.979,313.555 111.759,314.116 112.539,314.684 113.319,315.261 114.099,315.845 114.879,316.437 115.659,317.036 116.439,317.643 117.219,318.258 117.999,318.879 118.779,319.507 119.559,320.142 120.339,320.784 121.119,321.433 121.899,322.088 122.679,322.749 123.459,323.416 124.239,324.090 125.019,324.769 125.799,325.454 126.579,326.144 127.359,326.840 128.139,327.541 128.919,328.247 129.699,328.958 130.479,329.673 131.259,330.394 132.039,331.118 132.819,331.847 133.599,332.580 134.379,333.317 135.159,334.057 135.939,334.802 136.719,335.549 137.499,336.300 138.279,337.054 139.059,337.811 139.839,338.571 140.619,339.333 141.399,340.097 142.179,340.864 142.959,341.633 143.739,342.404 144.519,343.176 145.299,343.950 146.079,344.726 146.859,345.502 147.639,346.280 148.419,347.058 149.199,347.837 149.979,348.617 150.759,349.397 151.539,350.177 152.319,350.957 153.099,351.736 153.879,352.516 154.659,353.294 155.439,354.072 156.219,354.849 156.999,355.626 157.779,356.400 158.559,357.174 159.339,357.945 160.119,358.715 160.899,359.483 161.679,360.249 162.459,361.013 163.239,361.774 164.019,362.532 164.799,363.288 165.579,364.040 166.359,364.790 167.139,365.536 167.919,366.278 168.699,367.017 169.479,367.752 170.259,368.483 171.039,369.210 171.819,369.933 172.599,370.651 173.379,371.365 174.159,372.073 174.939,372.777 175.719,373.476 176.499,374.169 177.279,374.857 178.059,375.539 178.839,376.216 179.619,376.886 180.399,377.551 181.179,378.209 181.959,378.861 182.739,379.507 183.519,380.146 184.299,380.778 185.079,381.403 185.859,382.021 186.639,382.632 187.419,383.236 188.199,383.832 188.979,384.420 189.759,385.001 190.539,385.574 191.319,386.139 192.099,386.696 192.879,387.244 193.659,387.784 194.439,388.316 195.219,388.839 195.999,389.353 196.779,389.859 197.559,390.355 198.339,390.842 199.119,391.320 199.899,391.789 200.679,392.249 201.459,392.699 202.239,393.139 203.019,393.570 203.799,393.991 204.579,394.401 205.359,394.802 206.139,395.193 206.919,395.574 207.699,395.944 208.479,396.305 209.259,396.654 210.039,396.993 210.819,397.322 211.599,397.640 212.379,397.947 213.159,398.244 213.939,398.529 214.719,398.804 215.499,399.068 216.279,399.320 217.059,399.562 217.839,399.792 218.619,400.012 219.399,400.220 220.179,400.416 220.959,400.602 221.739,400.776 222.519,400.938 223.299,401.089 224.079,401.229 224.859,401.357 225.639,401.473 226.419,401.578 227.199,401.671 227.979,401.753 228.759,401.823 229.539,401.881 230.319,401.928 231.099,401.963 231.879,401.986 232.659,401.998 233.439,401.998 234.219,401.986 234.999,401.963 235.779,401.928 236.559,401.881 237.339,401.822 238.119,401.752 238.899,401.670 239.679,401.577 240.459,401.472 241.239,401.355 242.019,401.227 242.799,401.087 243.579,400.936 244.359,400.773 245.139,400.599 245.919,400.414 246.699,400.217 247.479,400.009 248.259,399.789 249.039,399.559 249.819,399.317 250.599,399.064 251.379,398.800 252.159,398.525 252.939,398.240 253.719,397.943 254.499,397.636 255.279,397.317 256.059,396.989 256.839,396.649 257.619,396.300 258.399,395.939 259.179,395.569 259.959,395.188 260.739,394.797 261.519,394.396 262.299,393.985 263.079,393.564 263.859,393.133 264.639,392.692 265.419,392.242 266.199,391.783 266.979,391.314 267.759,390.835 268.539,390.348 269.319,389.851 270.099,389.346 270.879,388.831 271.659,388.308 272.439,387.777 273.219,387.236 273.999,386.688 274.779,386.131 275.559,385.566 276.339,384.993 277.119,384.412 277.899,383.823 278.679,383.227 279.459,382.624 280.239,382.012 281.019,381.394 281.799,380.769 282.579,380.137 283.359,379.498 284.139,378.852 284.919,378.200 285.699,377.541 286.479,376.877 287.259,376.206 288.039,375.529 288.819,374.847 289.599,374.159 290.379,373.466 291.159,372.767 291.939,372.063 292.719,371.354 293.499,370.641 294.279,369.923 295.059,369.200 295.839,368.473 296.619,367.742 297.399,367.007 298.179,366.268 298.959,365.525 299.739,364.779 300.519,364.029 301.299,363.277 302.079,362.521 302.859,361.763 303.639,361.002 304.419,360.238 305.199,359.472 305.979,358.704 306.759,357.934 307.539,357.163 308.319,356.389 309.099,355.614 309.879,354.838 310.659,354.061 311.439,353.283 312.219,352.504 312.999,351.725 313.779,350.945 314.559,350.165 315.339,349.385 316.119,348.606 316.899,347.826 317.679,347.047 318.459,346.269 319.239,345.491 320.019,344.715 320.799,343.939 321.579,343.165 322.359,342.393 323.139,341.622 323.919,340.853 324.699,340.086 325.479,339.322 326.259,338.560 327.039,337.800 327.819,337.043 328.599,336.289 329.379,335.539 330.159,334.791 330.939,334.047 331.719,333.306 332.499,332.570 333.279,331.837 334.059,331.108 334.839,330.383 335.619,329.663 336.399,328.948 337.179,328.237 337.959,327.531 338.739,326.830 339.519,326.134 340.299,325.444 341.079,324.759 341.859,324.080 342.639,323.407 343.419,322.740 344.199,322.078 344.979,321.424 345.759,320.775 346.539,320.133 347.319,319.498 348.099,318.870 348.879,318.249 349.659,317.635 350.439,317.028 351.219,316.428 351.999,315.836 352.779,315.252 353.559,314.676 354.339,314.107 355.119,313.547 355.899,312.995 356.679,312.451 357.459,311.916 358.239,311.389 359.019,310.871 359.799,310.362 360.579,309.861 361.359,309.370 362.139,308.888 362.919,308.415 363.699,307.951 364.479,307.497 365.259,307.052 366.039,306.617 366.819,306.192 367.599,305.777 368.379,305.372 369.159,304.976 369.939,304.591 370.719,304.216 371.499,303.851 372.279,303.497 373.059,303.153 373.839,302.820 374.619,302.497 375.399,302.185 376.179,301.884 376.959,301.594 377.739,301.314 378.519,301.046 379.299,300.788 380.079,300.542 380.859,300.306 381.639,300.082 382.419,299.869 383.199,299.668 383.979,299.477 384.759,299.298 385.539,299.131 386.319,298.975 387.099,298.830 387.879,298.697 388.659,298.576 389.439,298.466 390.219,298.367 390.999,298.280 391.779,298.205 392.559,298.142 393.339,298.090 394.119,298.050 394.899,298.021 395.679,298.005 396.459,298.000 397.239,298.006 398.019,298.025 398.799,298.055 399.579,298.096 400.359,298.150 401.139,298.215 401.919,298.291 402.699,298.380 403.479,298.480 404.259,298.591 405.039,298.714 405.819,298.849 406.599,298.995 407.379,299.153 408.159,299.322 408.939,299.502 409.719,299.694 410.499,299.897 411.279,300.112 412.059,300.338 412.839,300.574 413.619,300.822 414.399,301.081 415.179,301.351 415.959,301.632 416.739,301.924 417.519,302.227 418.299,302.540 419.079,302.864 419.859,303.199 420.639,303.544 421.419,303.900 422.199,304.266 422.979,304.642 423.759,305.029 424.539,305.426 425.319,305.832 426.099,306.249 426.879,306.676 427.659,307.112 428.439,307.558 429.219,308.013 429.999,308.478 430.779,308.952 431.559,309.436 432.339,309.928 433.119,310.430 433.899,310.940 434.679,311.460 435.459,311.988 436.239,312.524 437.019,313.069 437.799,313.622 438.579,314.184 439.359,314.753 440.139,315.331 440.919,315.916 441.699,316.509 442.479,317.109 443.259,317.717 444.039,318.332 444.819,318.954 445.599,319.583 446.379,320.220 447.159,320.862 447.939,321.512 448.719,322.167 449.499,322.829 450.279,323.497 451.059,324.171 451.839,324.851 452.619,325.537 453.399,326.228 454.179,326.924 454.959,327.626 455.739,328.332 456.519,329.044 457.299,329.760 458.079,330.481 458.859,331.206 459.639,331.935 460.419,332.669 461.199,333.406 461.979,334.147 462.759,334.892 463.539,335.640 464.319,336.391 465.099,337.145 465.879,337.902 466.659,338.662 467.439,339.425 468.219,340.190 468.999,340.957 469.779,341.726 470.559,342.497 471.339,343.270 472.119,344.044 472.899,344.819 473.679,345.596 474.459,346.374 475.239,347.152 476.019,347.931 476.799,348.711 477.579,349.491 478.359,350.271 479.139,351.051 479.919,351.830 480.699,352.609 481.479,353.388 482.259,354.166 483.039,354.943 483.819,355.719 484.599,356.494 485.379,357.267 486.159,358.038 486.939,358.808 487.719,359.576 488.499,360.341 489.279,361.104 490.059,361.865 490.839,362.623 491.619,363.378 492.399,364.131 493.179,364.880 493.959,365.625 494.739,366.367 495.519,367.106 496.299,367.841 497.079,368.571 497.859,369.298 498.639,370.020 499.419,370.737 500.199,371.450 500.979,372.158 501.759,372.861 502.539,373.559 503.319,374.252 504.099,374.939 504.879,375.621 505.659,376.297 506.439,376.967 507.219,377.631 507.999,378.288 508.779,378.939 509.559,379.584 510.339,380.222 511.119,380.854 511.899,381.478 512.679,382.095 513.459,382.705 514.239,383.308 515.019,383.903 515.799,384.491 516.579,385.071 517.359,385.643 518.139,386.206 518.919,386.762 519.699,387.310 520.479,387.849 521.259,388.379 522.039,388.901 " stroke-width="9" stroke="black" fill="none"></path></svg>