<?xml version="1.0" encoding="utf-8"?><!DOCTYPE svg PUBLIC "-//W3C//DTD SVG 1.1//EN" "http://www.w3.org/Graphics/SVG/1.1/DTD/svg11.dtd"><svg xmlns="http://www.w3.org/2000/svg" xmlns:xlink="http://www.w3.org/1999/xlink" id="preview" width="600" height="600.000" viewBox="0 0 600 600.000" xunitlength="120" yunitlength="400" xmin="4" xmax="9" ymin="1.2" ymax="2.7" ox="-480" oy="-480"><defs><style type="text/css">@import url("http://cdnjs.cloudflare.com/ajax/libs/KaTeX/0.2.0/katex.min.css")</style></defs><path d="M-18,1080 618,1080 M-480,-18 -480,618.000 M0,1080 0,1080 M120,1080 120,1080 M240,1080 240,1080 M360,1080 360,1080 M480,1080 480,1080 M600,1080 600,1080 M-480,280 -480,280" stroke-width="2" stroke="black" fill="none"></path><text id="null" x="-480" y="-38" font-style="italic" font-family="KaTeX_Main, serif" font-size="0" font-weight="normal" text-anchor="middle" fill="black" stroke-width="0px">y</text><text id="null" x="638" y="1080" font-style="italic" font-family="KaTeX_Main, serif" font-size="0" font-weight="normal" text-anchor="start" fill="black" stroke-width="0px">x</text><path id="null" d="M85.486,480.000 86.114,479.997 86.743,479.989 87.371,479.975 87.999,479.956 88.628,479.931 89.256,479.901 89.884,479.865 90.513,479.824 91.141,479.777 91.769,479.725 92.398,479.668 93.026,479.605 93.654,479.536 94.283,479.462 94.911,479.383 95.539,479.298 96.168,479.208 96.796,479.112 97.424,479.011 98.053,478.904 98.681,478.792 99.309,478.674 99.937,478.551 100.566,478.422 101.194,478.288 101.822,478.149 102.451,478.004 103.079,477.854 103.707,477.698 104.336,477.537 104.964,477.371 105.592,477.199 106.221,477.021 106.849,476.839 107.477,476.650 108.106,476.457 108.734,476.258 109.362,476.054 109.991,475.844 110.619,475.629 111.247,475.409 111.876,475.183 112.504,474.952 113.132,474.715 113.760,474.473 114.389,474.226 115.017,473.974 115.645,473.716 116.274,473.453 116.902,473.185 117.530,472.911 118.159,472.632 118.787,472.348 119.415,472.058 120.044,471.763 120.672,471.463 121.300,471.158 121.929,470.848 122.557,470.532 123.185,470.211 123.814,469.885 124.442,469.553 125.070,469.217 125.699,468.875 126.327,468.528 126.955,468.176 127.583,467.818 128.212,467.456 128.840,467.088 129.468,466.716 130.097,466.338 130.725,465.955 131.353,465.567 131.982,465.174 132.610,464.775 133.238,464.372 133.867,463.964 134.495,463.550 135.123,463.132 135.752,462.709 136.380,462.280 137.008,461.847 137.637,461.408 138.265,460.965 138.893,460.517 139.522,460.063 140.150,459.605 140.778,459.142 141.406,458.674 142.035,458.201 142.663,457.723 143.291,457.240 143.920,456.753 144.548,456.260 145.176,455.763 145.805,455.261 146.433,454.754 147.061,454.242 147.690,453.726 148.318,453.205 148.946,452.679 149.575,452.148 150.203,451.613 150.831,451.072 151.460,450.528 152.088,449.978 152.716,449.424 153.345,448.865 153.973,448.302 154.601,447.734 155.229,447.161 155.858,446.584 156.486,446.002 157.114,445.416 157.743,444.825 158.371,444.229 158.999,443.630 159.628,443.025 160.256,442.416 160.884,441.803 161.513,441.185 162.141,440.563 162.769,439.937 163.398,439.306 164.026,438.670 164.654,438.031 165.283,437.387 165.911,436.738 166.539,436.086 167.168,435.429 167.796,434.768 168.424,434.102 169.052,433.433 169.681,432.759 170.309,432.081 170.937,431.399 171.566,430.712 172.194,430.022 172.822,429.327 173.451,428.629 174.079,427.926 174.707,427.219 175.336,426.508 175.964,425.793 176.592,425.074 177.221,424.352 177.849,423.625 178.477,422.894 179.106,422.160 179.734,421.421 180.362,420.679 180.990,419.932 181.619,419.182 182.247,418.428 182.875,417.671 183.504,416.909 184.132,416.144 184.760,415.375 185.389,414.602 186.017,413.826 186.645,413.046 187.274,412.262 187.902,411.475 188.530,410.684 189.159,409.889 189.787,409.091 190.415,408.290 191.044,407.484 191.672,406.676 192.300,405.864 192.929,405.048 193.557,404.229 194.185,403.407 194.813,402.581 195.442,401.752 196.070,400.919 196.698,400.084 197.327,399.245 197.955,398.402 198.583,397.557 199.212,396.708 199.840,395.856 200.468,395.001 201.097,394.142 201.725,393.281 202.353,392.416 202.982,391.549 203.610,390.678 204.238,389.804 204.867,388.927 205.495,388.048 206.123,387.165 206.752,386.279 207.380,385.391 208.008,384.499 208.636,383.605 209.265,382.708 209.893,381.808 210.521,380.905 211.150,380.000 211.778,379.091 212.406,378.180 213.035,377.267 213.663,376.350 214.291,375.431 214.920,374.510 215.548,373.586 216.176,372.659 216.805,371.730 217.433,370.798 218.061,369.863 218.690,368.927 219.318,367.988 219.946,367.046 220.575,366.102 221.203,365.156 221.831,364.207 222.459,363.256 223.088,362.303 223.716,361.347 224.344,360.389 224.973,359.429 225.601,358.467 226.229,357.503 226.858,356.536 227.486,355.568 228.114,354.597 228.743,353.625 229.371,352.650 229.999,351.673 230.628,350.695 231.256,349.714 231.884,348.732 232.513,347.747 233.141,346.761 233.769,345.773 234.398,344.783 235.026,343.792 235.654,342.798 236.282,341.803 236.911,340.806 237.539,339.808 238.167,338.808 238.796,337.806 239.424,336.803 240.052,335.798 240.681,334.792 241.309,333.784 241.937,332.774 242.566,331.764 243.194,330.751 243.822,329.738 244.451,328.723 245.079,327.706 245.707,326.689 246.336,325.670 246.964,324.650 247.592,323.628 248.221,322.606 248.849,321.582 249.477,320.557 250.105,319.531 250.734,318.504 251.362,317.476 251.990,316.447 252.619,315.417 253.247,314.386 253.875,313.354 254.504,312.321 255.132,311.287 255.760,310.252 256.389,309.216 257.017,308.180 257.645,307.143 258.274,306.105 258.902,305.066 259.530,304.027 260.159,302.987 260.787,301.947 261.415,300.905 262.044,299.864 262.672,298.821 263.300,297.779 263.928,296.735 264.557,295.692 265.185,294.647 265.813,293.603 266.442,292.558 267.070,291.513 267.698,290.467 268.327,289.421 268.955,288.375 269.583,287.329 270.212,286.282 270.840,285.235 271.468,284.188 272.097,283.141 272.725,282.094 273.353,281.047 273.982,280.000 274.610,278.953 275.238,277.905 275.867,276.858 276.495,275.811 277.123,274.764 277.751,273.718 278.380,272.671 279.008,271.625 279.636,270.579 280.265,269.533 280.893,268.487 281.521,267.442 282.150,266.397 282.778,265.352 283.406,264.308 284.035,263.264 284.663,262.221 285.291,261.178 285.920,260.136 286.548,259.094 287.176,258.053 287.805,257.012 288.433,255.972 289.061,254.933 289.689,253.895 290.318,252.857 290.946,251.820 291.574,250.783 292.203,249.748 292.831,248.713 293.459,247.679 294.088,246.646 294.716,245.614 295.344,244.583 295.973,243.553 296.601,242.524 297.229,241.495 297.858,240.468 298.486,239.442 299.114,238.418 299.743,237.394 300.371,236.371 300.999,235.350 301.628,234.330 302.256,233.311 302.884,232.293 303.512,231.277 304.141,230.262 304.769,229.248 305.397,228.236 306.026,227.225 306.654,226.216 307.282,225.208 307.911,224.202 308.539,223.197 309.167,222.193 309.796,221.192 310.424,220.192 311.052,219.193 311.681,218.196 312.309,217.201 312.937,216.208 313.566,215.216 314.194,214.227 314.822,213.238 315.451,212.252 316.079,211.268 316.707,210.285 317.335,209.305 317.964,208.326 318.592,207.350 319.220,206.375 319.849,205.402 320.477,204.432 321.105,203.463 321.734,202.497 322.362,201.532 322.990,200.570 323.619,199.610 324.247,198.653 324.875,197.697 325.504,196.744 326.132,195.793 326.760,194.844 327.389,193.898 328.017,192.954 328.645,192.012 329.274,191.073 329.902,190.136 330.530,189.202 331.158,188.270 331.787,187.341 332.415,186.414 333.043,185.490 333.672,184.568 334.300,183.649 334.928,182.733 335.557,181.819 336.185,180.908 336.813,180.000 337.442,179.094 338.070,178.192 338.698,177.292 339.327,176.394 339.955,175.500 340.583,174.609 341.212,173.720 341.840,172.835 342.468,171.952 343.097,171.072 343.725,170.195 344.353,169.322 344.981,168.451 345.610,167.583 346.238,166.719 346.866,165.857 347.495,164.999 348.123,164.144 348.751,163.292 349.380,162.443 350.008,161.597 350.636,160.755 351.265,159.916 351.893,159.080 352.521,158.248 353.150,157.418 353.778,156.593 354.406,155.770 355.035,154.951 355.663,154.136 356.291,153.324 356.920,152.515 357.548,151.710 358.176,150.908 358.804,150.110 359.433,149.316 360.061,148.525 360.689,147.737 361.318,146.954 361.946,146.174 362.574,145.397 363.203,144.625 363.831,143.856 364.459,143.090 365.088,142.329 365.716,141.571 366.344,140.817 366.973,140.067 367.601,139.321 368.229,138.578 368.858,137.840 369.486,137.105 370.114,136.375 370.743,135.648 371.371,134.925 371.999,134.206 372.627,133.491 373.256,132.780 373.884,132.074 374.512,131.371 375.141,130.672 375.769,129.978 376.397,129.287 377.026,128.601 377.654,127.919 378.282,127.241 378.911,126.567 379.539,125.897 380.167,125.232 380.796,124.571 381.424,123.914 382.052,123.261 382.681,122.613 383.309,121.969 383.937,121.329 384.565,120.694 385.194,120.063 385.822,119.436 386.450,118.814 387.079,118.196 387.707,117.583 388.335,116.974 388.964,116.370 389.592,115.770 390.220,115.175 390.849,114.584 391.477,113.997 392.105,113.416 392.734,112.838 393.362,112.266 393.990,111.698 394.619,111.134 395.247,110.575 395.875,110.021 396.504,109.472 397.132,108.927 397.760,108.387 398.388,107.851 399.017,107.321 399.645,106.795 400.273,106.273 400.902,105.757 401.530,105.245 402.158,104.738 402.787,104.236 403.415,103.739 404.043,103.247 404.672,102.759 405.300,102.276 405.928,101.798 406.557,101.325 407.185,100.857 407.813,100.394 408.442,99.936 409.070,99.483 409.698,99.034 410.327,98.591 410.955,98.153 411.583,97.719 412.211,97.291 412.840,96.867 413.468,96.449 414.096,96.035 414.725,95.627 415.353,95.224 415.981,94.826 416.610,94.432 417.238,94.044 417.866,93.661 418.495,93.284 419.123,92.911 419.751,92.543 420.380,92.181 421.008,91.824 421.636,91.471 422.265,91.124 422.893,90.783 423.521,90.446 424.150,90.115 424.778,89.788 425.406,89.467 426.034,89.152 426.663,88.841 427.291,88.536 427.919,88.236 428.548,87.941 429.176,87.651 429.804,87.367 430.433,87.088 431.061,86.814 431.689,86.546 432.318,86.283 432.946,86.025 433.574,85.773 434.203,85.526 434.831,85.284 435.459,85.047 436.088,84.816 436.716,84.591 437.344,84.370 437.973,84.155 438.601,83.945 439.229,83.741 439.857,83.542 440.486,83.349 441.114,83.160 441.742,82.978 442.371,82.800 442.999,82.628 443.627,82.462 444.256,82.301 444.884,82.145 445.512,81.995 446.141,81.850 446.769,81.711 447.397,81.577 448.026,81.448 448.654,81.325 449.282,81.207 449.911,81.095 450.539,80.988 451.167,80.887 451.796,80.791 452.424,80.701 453.052,80.616 453.680,80.537 454.309,80.463 454.937,80.394 455.565,80.331 456.194,80.274 456.822,80.222 457.450,80.175 458.079,80.134 458.707,80.098 459.335,80.068 459.964,80.043 460.592,80.024 461.220,80.010 461.849,80.002 462.477,80.000 " stroke-width="9" stroke="blue" fill="none"></path></svg>